<svg id="visual" viewBox="0 0 960 540" width="960" height="540" xmlns="http://www.w3.org/2000/svg" xmlns:xlink="http://www.w3.org/1999/xlink" version="1.1"><rect x="0" y="0" width="960" height="540" fill="#1e897e"></rect><defs><linearGradient id="grad1_0" x1="43.8%" y1="100%" x2="100%" y2="0%"><stop offset="14.444444444444446%" stop-color="#065036" stop-opacity="1"></stop><stop offset="85.55555555555554%" stop-color="#065036" stop-opacity="1"></stop></linearGradient></defs><defs><linearGradient id="grad1_1" x1="43.8%" y1="100%" x2="100%" y2="0%"><stop offset="14.444444444444446%" stop-color="#065036" stop-opacity="1"></stop><stop offset="85.55555555555554%" stop-color="#0c634d" stop-opacity="1"></stop></linearGradient></defs><defs><linearGradient id="grad1_2" x1="43.8%" y1="100%" x2="100%" y2="0%"><stop offset="14.444444444444446%" stop-color="#147665" stop-opacity="1"></stop><stop offset="85.55555555555554%" stop-color="#0c634d" stop-opacity="1"></stop></linearGradient></defs><defs><linearGradient id="grad1_3" x1="43.8%" y1="100%" x2="100%" y2="0%"><stop offset="14.444444444444446%" stop-color="#147665" stop-opacity="1"></stop><stop offset="85.55555555555554%" stop-color="#1e897e" stop-opacity="1"></stop></linearGradient></defs><defs><linearGradient id="grad2_0" x1="0%" y1="100%" x2="56.3%" y2="0%"><stop offset="14.444444444444446%" stop-color="#065036" stop-opacity="1"></stop><stop offset="85.55555555555554%" stop-color="#065036" stop-opacity="1"></stop></linearGradient></defs><defs><linearGradient id="grad2_1" x1="0%" y1="100%" x2="56.3%" y2="0%"><stop offset="14.444444444444446%" stop-color="#0c634d" stop-opacity="1"></stop><stop offset="85.55555555555554%" stop-color="#065036" stop-opacity="1"></stop></linearGradient></defs><defs><linearGradient id="grad2_2" x1="0%" y1="100%" x2="56.3%" y2="0%"><stop offset="14.444444444444446%" stop-color="#0c634d" stop-opacity="1"></stop><stop offset="85.55555555555554%" stop-color="#147665" stop-opacity="1"></stop></linearGradient></defs><defs><linearGradient id="grad2_3" x1="0%" y1="100%" x2="56.3%" y2="0%"><stop offset="14.444444444444446%" stop-color="#1e897e" stop-opacity="1"></stop><stop offset="85.55555555555554%" stop-color="#147665" stop-opacity="1"></stop></linearGradient></defs><g transform="translate(960, 540)"><path d="M-540 0C-493.4 -43.2 -446.8 -86.4 -436.5 -141.8C-426.3 -197.3 -452.5 -265 -436.9 -317.4C-421.3 -369.8 -364 -406.8 -308.6 -424.7C-253.2 -442.6 -199.7 -441.4 -148.6 -457.5C-97.5 -473.5 -48.8 -506.7 0 -540L0 0Z" fill="#197f71"></path><path d="M-405 0C-370 -32.4 -335.1 -64.8 -327.4 -106.4C-319.7 -148 -339.3 -198.8 -327.7 -238.1C-316 -277.3 -273 -305.1 -231.4 -318.6C-189.9 -332 -149.8 -331.1 -111.5 -343.1C-73.1 -355.1 -36.6 -380.1 0 -405L0 0Z" fill="#106c58"></path><path d="M-270 0C-246.7 -21.6 -223.4 -43.2 -218.3 -70.9C-213.2 -98.6 -226.2 -132.5 -218.4 -158.7C-210.6 -184.9 -182 -203.4 -154.3 -212.4C-126.6 -221.3 -99.9 -220.7 -74.3 -228.7C-48.8 -236.7 -24.4 -253.4 0 -270L0 0Z" fill="#095941"></path><path d="M-135 0C-123.3 -10.8 -111.7 -21.6 -109.1 -35.5C-106.6 -49.3 -113.1 -66.3 -109.2 -79.4C-105.3 -92.4 -91 -101.7 -77.1 -106.2C-63.3 -110.7 -49.9 -110.4 -37.2 -114.4C-24.4 -118.4 -12.2 -126.7 0 -135L0 0Z" fill="#065036"></path></g><g transform="translate(0, 0)"><path d="M540 0C538.3 58.3 536.7 116.6 513.6 166.9C490.5 217.2 446 259.5 398 289.2C350.1 318.9 298.7 336.1 254.5 350.3C210.4 364.6 173.5 375.9 132.3 407.1C91.1 438.2 45.5 489.1 0 540L0 0Z" fill="#197f71"></path><path d="M405 0C403.7 43.7 402.5 87.4 385.2 125.2C367.9 162.9 334.5 194.6 298.5 216.9C262.6 239.2 224 252 190.9 262.7C157.8 273.4 130.1 281.9 99.2 305.3C68.3 328.6 34.1 366.8 0 405L0 0Z" fill="#106c58"></path><path d="M270 0C269.2 29.1 268.3 58.3 256.8 83.4C245.2 108.6 223 129.7 199 144.6C175 159.5 149.3 168 127.3 175.2C105.2 182.3 86.7 188 66.1 203.5C45.5 219.1 22.8 244.5 0 270L0 0Z" fill="#095941"></path><path d="M135 0C134.6 14.6 134.2 29.1 128.4 41.7C122.6 54.3 111.5 64.9 99.5 72.3C87.5 79.7 74.7 84 63.6 87.6C52.6 91.1 43.4 94 33.1 101.8C22.8 109.5 11.4 122.3 0 135L0 0Z" fill="#065036"></path></g></svg>