<svg id="visual" viewBox="0 0 960 540" width="960" height="540" xmlns="http://www.w3.org/2000/svg" xmlns:xlink="http://www.w3.org/1999/xlink" version="1.1"><rect x="0" y="0" width="960" height="540" fill="#26a69a"></rect><defs><linearGradient id="grad1_0" x1="43.8%" y1="100%" x2="100%" y2="0%"><stop offset="14.444444444444446%" stop-color="#065036" stop-opacity="1"></stop><stop offset="85.55555555555554%" stop-color="#065036" stop-opacity="1"></stop></linearGradient></defs><defs><linearGradient id="grad1_1" x1="43.8%" y1="100%" x2="100%" y2="0%"><stop offset="14.444444444444446%" stop-color="#065036" stop-opacity="1"></stop><stop offset="85.55555555555554%" stop-color="#0c6048" stop-opacity="1"></stop></linearGradient></defs><defs><linearGradient id="grad1_2" x1="43.8%" y1="100%" x2="100%" y2="0%"><stop offset="14.444444444444446%" stop-color="#12715b" stop-opacity="1"></stop><stop offset="85.55555555555554%" stop-color="#0c6048" stop-opacity="1"></stop></linearGradient></defs><defs><linearGradient id="grad1_3" x1="43.8%" y1="100%" x2="100%" y2="0%"><stop offset="14.444444444444446%" stop-color="#12715b" stop-opacity="1"></stop><stop offset="85.55555555555554%" stop-color="#18826f" stop-opacity="1"></stop></linearGradient></defs><defs><linearGradient id="grad1_4" x1="43.8%" y1="100%" x2="100%" y2="0%"><stop offset="14.444444444444446%" stop-color="#1f9484" stop-opacity="1"></stop><stop offset="85.55555555555554%" stop-color="#18826f" stop-opacity="1"></stop></linearGradient></defs><defs><linearGradient id="grad1_5" x1="43.8%" y1="100%" x2="100%" y2="0%"><stop offset="14.444444444444446%" stop-color="#1f9484" stop-opacity="1"></stop><stop offset="85.55555555555554%" stop-color="#26a69a" stop-opacity="1"></stop></linearGradient></defs><defs><linearGradient id="grad2_0" x1="0%" y1="100%" x2="56.3%" y2="0%"><stop offset="14.444444444444446%" stop-color="#065036" stop-opacity="1"></stop><stop offset="85.55555555555554%" stop-color="#065036" stop-opacity="1"></stop></linearGradient></defs><defs><linearGradient id="grad2_1" x1="0%" y1="100%" x2="56.3%" y2="0%"><stop offset="14.444444444444446%" stop-color="#0c6048" stop-opacity="1"></stop><stop offset="85.55555555555554%" stop-color="#065036" stop-opacity="1"></stop></linearGradient></defs><defs><linearGradient id="grad2_2" x1="0%" y1="100%" x2="56.3%" y2="0%"><stop offset="14.444444444444446%" stop-color="#0c6048" stop-opacity="1"></stop><stop offset="85.55555555555554%" stop-color="#12715b" stop-opacity="1"></stop></linearGradient></defs><defs><linearGradient id="grad2_3" x1="0%" y1="100%" x2="56.3%" y2="0%"><stop offset="14.444444444444446%" stop-color="#18826f" stop-opacity="1"></stop><stop offset="85.55555555555554%" stop-color="#12715b" stop-opacity="1"></stop></linearGradient></defs><defs><linearGradient id="grad2_4" x1="0%" y1="100%" x2="56.3%" y2="0%"><stop offset="14.444444444444446%" stop-color="#18826f" stop-opacity="1"></stop><stop offset="85.55555555555554%" stop-color="#1f9484" stop-opacity="1"></stop></linearGradient></defs><defs><linearGradient id="grad2_5" x1="0%" y1="100%" x2="56.3%" y2="0%"><stop offset="14.444444444444446%" stop-color="#26a69a" stop-opacity="1"></stop><stop offset="85.55555555555554%" stop-color="#1f9484" stop-opacity="1"></stop></linearGradient></defs><g transform="translate(960, 540)"><path d="M-540 0C-539.7 -58.5 -539.5 -117.1 -513.6 -166.9C-487.7 -216.7 -436.1 -257.8 -385.1 -279.8C-334.1 -301.8 -283.6 -304.7 -250.4 -344.6C-217.2 -384.6 -201.4 -461.5 -162.5 -500.3C-123.7 -539 -61.8 -539.5 0 -540L0 0Z" fill="#229d8f"></path><path d="M-450 0C-449.8 -48.8 -449.6 -97.5 -428 -139.1C-406.4 -180.6 -363.4 -214.8 -320.9 -233.2C-278.4 -251.5 -236.3 -253.9 -208.7 -287.2C-181 -320.5 -167.8 -384.6 -135.5 -416.9C-103.1 -449.2 -51.5 -449.6 0 -450L0 0Z" fill="#1c8b79"></path><path d="M-360 0C-359.8 -39 -359.7 -78 -342.4 -111.2C-325.1 -144.5 -290.7 -171.9 -256.7 -186.5C-222.7 -201.2 -189 -203.1 -166.9 -229.8C-144.8 -256.4 -134.3 -307.7 -108.4 -333.5C-82.5 -359.3 -41.2 -359.7 0 -360L0 0Z" fill="#157a65"></path><path d="M-270 0C-269.9 -29.3 -269.7 -58.5 -256.8 -83.4C-243.8 -108.3 -218.1 -128.9 -192.5 -139.9C-167 -150.9 -141.8 -152.4 -125.2 -172.3C-108.6 -192.3 -100.7 -230.8 -81.3 -250.1C-61.8 -269.5 -30.9 -269.7 0 -270L0 0Z" fill="#0f6951"></path><path d="M-180 0C-179.9 -19.5 -179.8 -39 -171.2 -55.6C-162.6 -72.2 -145.4 -85.9 -128.4 -93.3C-111.4 -100.6 -94.5 -101.6 -83.5 -114.9C-72.4 -128.2 -67.1 -153.8 -54.2 -166.8C-41.2 -179.7 -20.6 -179.8 0 -180L0 0Z" fill="#09583f"></path><path d="M-90 0C-90 -9.8 -89.9 -19.5 -85.6 -27.8C-81.3 -36.1 -72.7 -43 -64.2 -46.6C-55.7 -50.3 -47.3 -50.8 -41.7 -57.4C-36.2 -64.1 -33.6 -76.9 -27.1 -83.4C-20.6 -89.8 -10.3 -89.9 0 -90L0 0Z" fill="#065036"></path></g><g transform="translate(0, 0)"><path d="M540 0C488.9 41.1 437.8 82.2 429.9 139.7C422 197.1 457.3 271 436.9 317.4C416.5 363.8 340.4 382.8 279.2 384.3C218 385.8 171.7 369.8 127.6 392.8C83.6 415.8 41.8 477.9 0 540L0 0Z" fill="#229d8f"></path><path d="M450 0C407.4 34.3 364.8 68.5 358.2 116.4C351.6 164.3 381.1 225.8 364.1 264.5C347.1 303.2 283.7 319 232.7 320.2C181.7 321.5 143.1 308.1 106.4 327.3C69.6 346.5 34.8 398.3 0 450L0 0Z" fill="#1c8b79"></path><path d="M360 0C325.9 27.4 291.9 54.8 286.6 93.1C281.3 131.4 304.8 180.7 291.2 211.6C277.7 242.5 226.9 255.2 186.1 256.2C145.3 257.2 114.5 246.5 85.1 261.9C55.7 277.2 27.9 318.6 0 360L0 0Z" fill="#157a65"></path><path d="M270 0C244.4 20.6 218.9 41.1 214.9 69.8C211 98.6 228.6 135.5 218.4 158.7C208.2 181.9 170.2 191.4 139.6 192.1C109 192.9 85.8 184.9 63.8 196.4C41.8 207.9 20.9 239 0 270L0 0Z" fill="#0f6951"></path><path d="M180 0C163 13.7 145.9 27.4 143.3 46.6C140.7 65.7 152.4 90.3 145.6 105.8C138.8 121.3 113.5 127.6 93.1 128.1C72.7 128.6 57.2 123.3 42.5 130.9C27.9 138.6 13.9 159.3 0 180L0 0Z" fill="#09583f"></path><path d="M90 0C81.5 6.9 73 13.7 71.6 23.3C70.3 32.9 76.2 45.2 72.8 52.9C69.4 60.6 56.7 63.8 46.5 64C36.3 64.3 28.6 61.6 21.3 65.5C13.9 69.3 7 79.7 0 90L0 0Z" fill="#065036"></path></g></svg>